HIERARCHY
ROOT Hips
{
	OFFSET -14.64140 90.27770 -84.91600
	CHANNELS 6 Xposition Yposition Zposition Zrotation Xrotation Yrotation
	JOINT Spine
	{
		OFFSET 0.00000 13.20850 -1.60436
		CHANNELS 3 Zrotation Xrotation Yrotation
		JOINT Spine1
		{
			OFFSET 0.00000 8.61716 0.00000
			CHANNELS 3 Zrotation Xrotation Yrotation
			JOINT Spine2
			{
				OFFSET 0.00000 8.61717 0.00000
				CHANNELS 3 Zrotation Xrotation Yrotation
				JOINT Spine3
				{
					OFFSET 0.00000 8.61717 0.00000
					CHANNELS 3 Zrotation Xrotation Yrotation
					JOINT Neck
					{
						OFFSET 0.00000 11.07920 1.10792
						CHANNELS 3 Zrotation Xrotation Yrotation
						JOINT Neck1
						{
							OFFSET 0.00000 7.08032 0.00000
							CHANNELS 3 Zrotation Xrotation Yrotation
							JOINT Head
							{
								OFFSET 0.00000 7.08031 0.00000
								CHANNELS 3 Zrotation Xrotation Yrotation
								End site
								{
									OFFSET 0.00000 0.00000 0.00000
								}
							}
						}
					}
					JOINT RightShoulder
					{
						OFFSET -0.01000 7.91373 5.19711
						CHANNELS 3 Zrotation Xrotation Yrotation
						JOINT RightArm
						{
							OFFSET -18.41580 0.00000 0.00000
							CHANNELS 3 Zrotation Xrotation Yrotation
							JOINT RightForeArm
							{
								OFFSET -29.11090 0.00000 0.00000
								CHANNELS 3 Zrotation Xrotation Yrotation
								JOINT RightHand
								{
									OFFSET -24.65040 0.00000 0.00000
									CHANNELS 3 Zrotation Xrotation Yrotation
									JOINT RightHandThumb1
									{
										OFFSET -5.35114 -0.85590 3.97906
										CHANNELS 3 Zrotation Xrotation Yrotation
										JOINT RightHandThumb2
										{
											OFFSET -4.52789 0.00000 0.00000
											CHANNELS 3 Zrotation Xrotation Yrotation
											JOINT RightHandThumb3
											{
												OFFSET -2.46976 0.00000 0.00000
												CHANNELS 3 Zrotation Xrotation Yrotation
												End site
												{
													OFFSET 0.00000 0.00000 0.00000
												}
											}
										}
									}
									JOINT RightHandIndex1
									{
										OFFSET -14.26970 0.00000 2.88139
										CHANNELS 3 Zrotation Xrotation Yrotation
										JOINT RightHandIndex2
										{
											OFFSET -5.48836 0.00000 0.00000
											CHANNELS 3 Zrotation Xrotation Yrotation
											JOINT RightHandIndex3
											{
												OFFSET -3.01859 0.00000 0.00000
												CHANNELS 3 Zrotation Xrotation Yrotation
												End site
												{
													OFFSET 0.00000 0.00000 0.00000
												}
											}
										}
									}
									JOINT RightHandMiddle1
									{
										OFFSET -14.26970 0.00000 -0.09147
										CHANNELS 3 Zrotation Xrotation Yrotation
										JOINT RightHandMiddle2
										{
											OFFSET -6.17441 0.00000 0.00000
											CHANNELS 3 Zrotation Xrotation Yrotation
											JOINT RightHandMiddle3
											{
												OFFSET -3.56743 0.00000 0.00000
												CHANNELS 3 Zrotation Xrotation Yrotation
												End site
												{
													OFFSET 0.00000 0.00000 0.00000
												}
											}
										}
									}
									JOINT RightHandRing1
									{
										OFFSET -12.69180 0.00000 -3.06433
										CHANNELS 3 Zrotation Xrotation Yrotation
										JOINT RightHandRing2
										{
											OFFSET -5.62556 0.00000 0.00000
											CHANNELS 3 Zrotation Xrotation Yrotation
											JOINT RightHandRing3
											{
												OFFSET -3.56744 0.00000 0.00000
												CHANNELS 3 Zrotation Xrotation Yrotation
												End site
												{
													OFFSET 0.00000 0.00000 0.00000
												}
											}
										}
									}
									JOINT RightHandPinky1
									{
										OFFSET -11.11390 0.00000 -6.03719
										CHANNELS 3 Zrotation Xrotation Yrotation
										JOINT RightHandPinky2
										{
											OFFSET -4.52789 0.00000 0.00000
											CHANNELS 3 Zrotation Xrotation Yrotation
											JOINT RightHandPinky3
											{
												OFFSET -2.46976 0.00000 0.00000
												CHANNELS 3 Zrotation Xrotation Yrotation
												End site
												{
													OFFSET 0.00000 0.00000 0.00000
												}
											}
										}
									}
								}
							}
						}
					}
					JOINT LeftShoulder
					{
						OFFSET 0.01000 7.91373 5.19711
						CHANNELS 3 Zrotation Xrotation Yrotation
						JOINT LeftArm
						{
							OFFSET 18.41580 0.00000 0.00000
							CHANNELS 3 Zrotation Xrotation Yrotation
							JOINT LeftForeArm
							{
								OFFSET 29.11090 0.00000 0.00000
								CHANNELS 3 Zrotation Xrotation Yrotation
								JOINT LeftHand
								{
									OFFSET 24.65040 0.00000 0.00000
									CHANNELS 3 Zrotation Xrotation Yrotation
									JOINT LeftHandThumb1
									{
										OFFSET 5.35114 -0.85590 3.97906
										CHANNELS 3 Zrotation Xrotation Yrotation
										JOINT LeftHandThumb2
										{
											OFFSET 4.52789 0.00000 0.00000
											CHANNELS 3 Zrotation Xrotation Yrotation
											JOINT LeftHandThumb3
											{
												OFFSET 2.46977 0.00000 0.00000
												CHANNELS 3 Zrotation Xrotation Yrotation
												End site
												{
													OFFSET 0.00000 0.00000 0.00000
												}
											}
										}
									}
									JOINT LeftHandIndex1
									{
										OFFSET 14.26970 0.00000 2.88139
										CHANNELS 3 Zrotation Xrotation Yrotation
										JOINT LeftHandIndex2
										{
											OFFSET 5.48836 0.00000 0.00000
											CHANNELS 3 Zrotation Xrotation Yrotation
											JOINT LeftHandIndex3
											{
												OFFSET 3.01859 0.00000 0.00000
												CHANNELS 3 Zrotation Xrotation Yrotation
												End site
												{
													OFFSET 0.00000 0.00000 0.00000
												}
											}
										}
									}
									JOINT LeftHandMiddle1
									{
										OFFSET 14.26970 0.00000 -0.09147
										CHANNELS 3 Zrotation Xrotation Yrotation
										JOINT LeftHandMiddle2
										{
											OFFSET 6.17440 0.00000 0.00000
											CHANNELS 3 Zrotation Xrotation Yrotation
											JOINT LeftHandMiddle3
											{
												OFFSET 3.56744 0.00000 0.00000
												CHANNELS 3 Zrotation Xrotation Yrotation
												End site
												{
													OFFSET 0.00000 0.00000 0.00000
												}
											}
										}
									}
									JOINT LeftHandRing1
									{
										OFFSET 12.69180 0.00000 -3.06433
										CHANNELS 3 Zrotation Xrotation Yrotation
										JOINT LeftHandRing2
										{
											OFFSET 5.62556 0.00000 0.00000
											CHANNELS 3 Zrotation Xrotation Yrotation
											JOINT LeftHandRing3
											{
												OFFSET 3.56744 0.00000 0.00000
												CHANNELS 3 Zrotation Xrotation Yrotation
												End site
												{
													OFFSET 0.00000 0.00000 0.00000
												}
											}
										}
									}
									JOINT LeftHandPinky1
									{
										OFFSET 11.11390 0.00000 -6.03719
										CHANNELS 3 Zrotation Xrotation Yrotation
										JOINT LeftHandPinky2
										{
											OFFSET 4.52789 0.00000 0.00000
											CHANNELS 3 Zrotation Xrotation Yrotation
											JOINT LeftHandPinky3
											{
												OFFSET 2.46976 0.00000 0.00000
												CHANNELS 3 Zrotation Xrotation Yrotation
												End site
												{
													OFFSET 0.00000 0.00000 0.00000
												}
											}
										}
									}
								}
							}
						}
					}
					JOINT pCube4
					{
						OFFSET 0.00000 10.91090 1.10792
						CHANNELS 3 Zrotation Xrotation Yrotation
						End site
						{
							OFFSET 0.00000 0.00000 0.00000
						}
					}
				}
			}
		}
	}
	JOINT RightUpLeg
	{
		OFFSET -9.98441 0.00000 0.00000
		CHANNELS 3 Zrotation Xrotation Yrotation
		JOINT RightLeg
		{
			OFFSET 0.00000 -42.11790 0.00000
			CHANNELS 3 Zrotation Xrotation Yrotation
			JOINT RightFoot
			{
				OFFSET 0.00000 -45.00020 -0.00001
				CHANNELS 3 Zrotation Xrotation Yrotation
				JOINT RightForeFoot
				{
					OFFSET 0.00000 -3.74820 0.00000
					CHANNELS 3 Zrotation Xrotation Yrotation
					JOINT RightToeBase
					{
						OFFSET 0.00000 0.06325 14.43120
						CHANNELS 3 Zrotation Xrotation Yrotation
						End site
						{
							OFFSET 0.00000 0.00000 0.00000
						}
					}
				}
			}
		}
	}
	JOINT LeftUpLeg
	{
		OFFSET 9.98441 0.00000 0.00000
		CHANNELS 3 Zrotation Xrotation Yrotation
		JOINT LeftLeg
		{
			OFFSET 0.00000 -42.11800 0.00000
			CHANNELS 3 Zrotation Xrotation Yrotation
			JOINT LeftFoot
			{
				OFFSET 0.00000 -45.00070 0.00000
				CHANNELS 3 Zrotation Xrotation Yrotation
				JOINT LeftForeFoot
				{
					OFFSET 0.00000 -3.74824 0.00000
					CHANNELS 3 Zrotation Xrotation Yrotation
					JOINT LeftToeBase
					{
						OFFSET 0.00000 0.06325 14.43110
						CHANNELS 3 Zrotation Xrotation Yrotation
						End site
						{
							OFFSET 0.00000 0.00000 0.00000
						}
					}
				}
			}
		}
	}
}
MOTION
Frames: 4
Frame Time: 0.050000
0.00105002202034083 -0.045848137633298425 0.018146627267372328 -0.008806862085241148 0.026805147598190388 -0.011248934843138934 -2.255694538324228 1.022881271147337 -0.9115935964889047 -1.1802012010407095 3.91811495394765 0.3847108055680805 -1.1148944770676066 -1.9497432723659047 -1.9310658420126274 -0.04847744087646351 0.5702114976872348 -0.9096989778920413 -1.010795462661314 13.459528102795659 2.640457448869127 0.062021237607334474 -0.18914159612633125 5.610670043239529 -0.6915575338871424 -15.385386278427621 0.4813653358520236 -4.978233175146582 1.6784943284387606 -16.054797135085007 72.9925230846297 16.647564653531887 -4.6657874747719426 4.919932509387971 -1.9482531475140958 43.04022643973918 20.200892525867076 -0.11410863018101883 -2.568806168997582 4.514346568688635 -0.11112960282587707 -1.5871016865047112 -0.0379584256710252 -0.009379804851442278 -56.257061305738084 -0.0062264939416045335 -0.03606685165606293 -56.26091512791082 -38.796221345161335 0.01785368903420445 0.045725159925857566 0.0492063840424181 -0.02142611520732655 0.037569843080292604 -0.007619828508050187 -0.014438370421022393 0.004207397805227998 -36.65849893351288 0.005212527322630346 0.012710023654944527 -0.011067801797132829 -0.017179905108243156 -0.029651574415192304 -0.028413848151384116 0.014343252533331912 -0.0022791303075030737 -19.79968744511912 0.017230532903587246 0.006997979168286512 0.013310774904452557 -0.0430608765286361 -0.021026326044336307 -0.02697836273116786 0.043534134252577655 0.010781362971943965 24.08408470060493 0.006261641500554437 -0.018321299742700227 28.8177605863235 -0.04273454901392322 0.003902740849404136 28.888115877373234 0.044198869321551676 0.015555250810334622 8.266176234237594 1.7145072981351837 14.19446429968282 -69.06608071411576 18.484214034429858 -10.79522878028514 -1.6357529945115472 -17.65127950801575 -61.877840528111484 -6.53985606710162 -0.5295636274396719 1.4277323170702323 -0.43812898014035373 0.07903824209074457 -8.092654790330585 0.028468696814819495 0.017118304702150065 44.564333941156036 -0.005169252450653491 -0.04962892266479008 44.54321576819514 12.42045464557184 0.008345479020149541 -0.03338283395713771 0.003861852846185912 0.014915442468389689 0.01932792393369841 0.03683867912789553 -0.0008764586602129123 0.015832572566209596 11.116058155765229 0.04854060989315768 0.034014579999640866 0.038544309469062295 0.04702611928382604 0.001996030729871507 -0.0253863931919873 -0.02399649919629025 -0.014789984515181551 4.806723372569068 0.018353910559084256 -0.02212936546212295 0.043604391801316915 0.006301017068933042 -0.03328498460809981 0.00709720294884405 -0.004278217990714772 0.017247743449417364 -5.600842206506379 0.021468764195047726 0.013373004733573002 -6.731488206936582 -0.03852838719399196 -0.03717929991845609 -6.717782974471168 -0.024767417116615547 0.014361051567283269 0.008128637722592693 -0.026461299894299423 -0.04101127702664531 8.083699241691237 3.483572753874847 -19.177858420204316 -0.014448632107432453 10.43823536566467 0.04866563560063525 -5.650369707300004 -15.673384588292096 3.2227601029679303 0.013772072543443372 0.03695490187954874 -0.005092920729314916 0.028807897478228713 4.729848066556262 0.019059840275306657 12.473843459042707 -8.22419195858383 6.9196323490377365 -0.013879402986144602 46.38369234939284 -0.010159160643875039 -4.34473964356649 -14.759041485975004 -3.797280205735349 -0.027596815972338106 -0.02939458807697842 0.02431139270619273 -0.03626989184978631 -10.754007910768165 0.03180495820045042 
-0.0392667252423315 0.020432775774010897 -0.012215106933946845 0.009805341424427131 0.015133980271075874 0.018828461441849877 -2.238500679224276 1.0665021294570285 -0.8415421057661138 -1.162852694870526 3.9053457233804783 0.3468082772281666 -1.1622700475746452 -1.9017737984408936 -1.8532095846931738 -0.04619485076071672 0.5238538618916297 -0.9189088624616586 -1.094589225799391 13.298242508377422 2.8779673961041214 -0.01762556586478328 -0.21321964680475625 6.042960487726086 -0.7773999044655122 -15.492186408546102 0.5374212030768635 -4.664870182452012 1.659369928534435 -16.082055565862348 73.08122245213242 17.211941886614778 -5.587929612173099 5.307969512482738 -2.0762761711718927 42.360121431147554 20.243643672412613 -0.13787923707661354 -2.644603185108277 4.522514548984274 -0.1226183382736485 -1.561957176519106 -0.019192016740305882 0.01989943770873734 -56.2240782574757 0.025229317347340116 0.03645043600402408 -56.26322672086948 -38.74625183089969 0.010735090615226778 -0.01416422574397496 0.020989138778478314 -0.026210876166151136 0.03195112923899453 0.007423413900654274 -0.04609415053085604 -0.010895231159251447 -36.68556098213908 0.03831669767320904 0.038837865291041704 0.044167349988346975 -0.038209483420829284 0.0216059905995108 0.0396520004494421 0.011032967123420384 0.0362314722095204 -19.806588942857452 -0.02305643001037326 -0.03871213794638897 -0.03729247567732218 0.013542477425201982 -0.02206069213351242 0.048509817274328355 -0.03150960541684368 5.538771424665631e-06 24.013161318670047 0.0017468730175243178 0.013356064025718019 28.900402693028493 -0.008047197380999852 0.012768492928259463 28.899795041309346 0.0009956923892722323 -0.010099998370580471 7.89148688886974 1.7186196845731843 14.295923753672566 -70.20853213370428 19.385300553375664 -8.77656816983523 -2.0717747122356984 -17.410458596601593 -61.860791354491134 -7.082623818310181 -0.6967081742658997 1.5927089343292689 -0.43172368473513467 0.06280428777487868 -8.1456096289505 0.015535810685937936 0.022437329875074095 44.567674859079695 -0.019471759687470856 0.025415914742909357 44.58880045487803 12.481579095907977 -0.03333562512169842 0.010283099329938159 -0.009836415028312761 -0.016854688192983452 0.004808435146763173 -0.044861770569364606 0.0460304877928465 -0.04039649817891505 11.091109472703865 -0.030869323659644208 0.0354729739841744 -0.006727971519422744 0.0030881199335884017 -0.01619132059219909 0.04654213280395848 -0.019617079711716622 0.027975652623733544 4.76931458395296 -0.02462362584126545 0.04003872506753799 -0.023668039088624686 0.018635888626673165 -0.01745377953706077 0.005441748451071968 -0.015427138128350186 0.0278185059228919 -5.619696197668334 0.03545487640295356 -0.016865281656698008 -6.6890632222604305 0.03620741821647793 -0.023170372976060036 -6.687524475538092 -0.03936880927077937 -0.0015301684272976553 -0.04732359594183319 0.029412214389987153 0.013163484446798419 8.026216177350001 3.469037307930105 -19.17680305959394 0.0451803240764513 10.347225835356682 0.042825991280900075 -5.6627359997663085 -15.629225875398784 3.1481520675529584 -0.0022496638163522695 -0.009535351187883208 -0.011983518200528696 -0.02255232826880891 4.691674018037954 0.01631959786401582 12.418764530359606 -8.197477136596985 6.877535444937643 -0.044940994539099305 46.36534260384335 0.030334364586151085 -4.293856248770275 -14.750092850640629 -3.806346364460045 -0.018132782528225564 -0.014471429699503999 0.0058818851523567 0.011384003035420217 -10.725440014982178 -0.0008713866420314724 
0.04884578805163886 0.026915827432496514 0.0028528957133433113 0.02875026259755072 -0.011293042899913203 0.009099638956913547 -2.18697646551735 1.031591080047891 -0.8675157558010376 -1.104891903705611 3.9267767441824692 0.4033935397001885 -1.1486717642607358 -1.8125828238399162 -1.7842263470149113 -0.04695685523141678 0.5645079820630945 -0.886213100184598 -1.1841403926765746 13.160672142095224 3.0792674212796722 -0.06746255187283767 -0.2854746836419485 6.486071171262364 -0.8586163981818213 -15.565931044936505 0.5307001654478114 -4.491145971202722 1.52151622545818 -16.092217172209338 73.0734582537366 17.949475416935336 -6.284481779321044 4.893539663737466 -2.0919135600868968 41.68677290092651 20.114516213424317 -0.12296667125578063 -2.7839125332224914 4.562967027693079 -0.16294408843606772 -1.6098900673741428 -0.014332739643072558 0.0008372358957327808 -56.2513611483692 -0.029946152431881208 -0.035427723951309616 -56.249142450387076 -38.75866502565423 0.024234424889260912 -0.036072119918471264 0.04176921429234331 -0.02050010886080585 0.028445400260753154 -0.032914540189802735 0.01034443279334393 -0.03279891896090454 -36.70605737278735 -0.021484523407087758 0.0026731079920157014 -0.014050579562977731 0.019716634076899487 0.03885427621967734 0.03720352912009555 0.006359037635735802 0.048468437177017064 -19.789183461719173 0.01344619899645539 0.019070865613695663 -0.043349596989201156 -0.0231390970303033 0.025321745978314908 -0.04280868435799722 -0.004633482110257968 0.03320138884885148 24.030544623872927 -0.049690274394692285 -0.04317087167393796 28.844511158976776 0.0361186909833385 0.02525514391723878 28.89508225684872 0.00832226419765651 0.03081258204867152 7.8383662641853205 1.6092631709755674 14.444905233606217 -70.35362631997457 19.752485647535575 -8.394701965036957 -0.10793875990208092 -17.99687461947265 -64.34728007205027 -6.797039936193436 -1.1030774131722632 1.6111366450627158 -0.4863611785317229 0.04378330054516737 -8.15170302918979 0.028848401018449293 0.031118898388128344 44.60570950638947 0.030759148553093647 -0.02306790828288379 44.54720435773559 12.487067211677077 0.025049564005768098 -0.01094179610361665 -0.028001911163758927 -0.012242936302319646 6.150956556056901e-05 -0.01817391870735465 0.04722208978902911 0.04079940790066659 11.06908800767584 -0.01692964851979772 -0.02753020477285572 -0.008982885312678542 0.01709445942609519 -0.022618887811362776 -0.017440431992949174 0.04679973059833216 0.006583181852425417 4.75043137893601 0.04046858169747118 0.0387193895596853 -0.04908023856942191 -0.0049595290967077614 -0.014780898180355747 0.002833850623527231 -0.006582144895064139 0.02549986885933441 -5.632019563844626 -0.03872026206571118 -0.013222493997198808 -6.711098123480866 -0.005955505905418973 0.04540450830423469 -6.749654603971443 0.044095397260112544 -0.00012150798161742786 0.03643472547318185 -0.002918779502932485 0.012897661102507013 8.038163909963936 3.5081739987058524 -19.23201535376192 0.015497244323446133 10.424433040548077 0.03539503913012543 -5.670146795429015 -15.644148912891197 3.200100530523875 0.013633989511721486 -0.0016387559103018163 0.01491962533421739 0.02234406382909232 4.7052678506403 -0.041139469321599835 12.48347733736639 -8.246866956596108 6.860572390496948 0.03165084574049748 46.38222473996754 -0.014871127508991777 -4.315511764961443 -14.701317986232638 -3.88400043599443 0.010559487533868058 -0.0332334687993914 -0.04219536063306698 0.038053808014042595 -10.752992488134502 -0.02532228736761983 
0.018013238554135953 0.030698384063742857 0.014180305851707507 0.027489012966320992 -0.02396663180736361 0.014709967332498422 -2.121704248851874 1.1142768108481527 -0.8523518759554898 -1.1476157466026944 3.9179489490716835 0.34307871380432525 -1.1198641974444248 -1.836398996121445 -1.8506063364925323 -0.053516750807832685 0.5410741039296904 -0.8690607547477966 -1.2486418085024862 13.130723115828625 3.0991595607120344 -0.08548346278226829 -0.30594668785978685 6.532352240522395 -0.8852083340226271 -15.638733176919622 0.5563591355803909 -4.368998111367199 1.5303895348333234 -16.096823861544376 72.91566314703407 18.07272420831613 -6.415474557776456 5.286893517777043 -2.0026091121205205 42.21129631901061 20.036233797562367 -0.05179996855749521 -2.8891348941376886 4.537008382952801 -0.12627865486333228 -1.5968983134495383 0.03899586891641438 0.0025345718020717213 -56.254728412804496 0.04687376017510343 -0.03511078233985784 -56.199608063558046 -38.79854095903887 0.02613964906911852 0.0376797794972253 0.0362561863037009 0.005080818458654828 -0.012298298919859297 -0.00682768523610421 0.019236052203363576 0.0102907086914052 -36.7098661691461 -0.04127867060919342 -0.007510240895489412 0.016173773878381602 0.004534748874723776 -0.03284539358080122 -0.0021645816086835103 0.0013857999452197099 -0.018088807263223837 -19.731683552244885 0.0074895629703747345 0.01573422281319803 0.01633770644353229 -0.004682489291994696 0.0038884877889922473 0.016138882739967463 -0.03247412693868634 0.01378675486169317 24.09654234152421 0.02640121728474855 0.03587317976778052 28.818505560123903 0.0037355381229929535 0.019872582468704332 28.82628534778991 0.03325827901034107 0.02155987857170566 7.870764837177957 1.69518201832555 14.376872074921097 -70.0659909085921 19.569849541446672 -9.017698010756394 0.890544350350724 -18.346268348578683 -67.46608501317013 -6.343174075921516 -1.3135331126362397 1.5212462397628763 -0.5138847666689111 0.04706706730727647 -8.099213767112238 0.04544541707004727 0.00423680047139115 44.53482023148088 -0.02795560674713037 0.009493858556121563 44.54871217739334 12.47155081882207 0.026387950941860094 -0.012674063019523292 0.0032867283721423 -0.005896988660372791 -0.018604484509942742 -0.022414182220650555 -0.005731422326512899 -0.03759497057129382 11.142260848580053 0.029766918212617437 -0.03377302339896906 -0.02116926907930516 0.0008333091590390189 -0.0008548295590542806 0.014570413839336918 -0.04639464864439469 -0.010611330869697422 4.783942748660266 -0.025833430307973686 0.04437816621198878 -0.016484926244681862 -0.01508469104558152 0.04294140463787014 -0.013163077500610186 -0.023454867082846 -0.01747275303009252 -5.563333817675372 -0.006999077144532435 0.023596177877334132 -6.720159341547145 -0.013389871832680658 0.0074731188362581755 -6.726259281621812 0.04414989962811567 -0.031192288768219105 0.003469137158464252 -0.0023367305469378526 0.023285219031628397 8.024661575166656 3.4649658043356157 -19.23840970161508 0.0015746468504972062 10.39025516625465 0.04870067832855059 -5.65979392972954 -15.654432075571911 3.1799390977038318 -0.045454307382034966 -0.028496719337536714 -0.029933381535569063 0.005913793798847609 4.694855658821871 -0.015582445138736148 12.479735507501871 -8.248149074068523 6.850809105722334 -0.013549240232886972 46.42451307067879 -0.0423475652240346 -4.3348916157613715 -14.793393654963458 -3.866191814637239 0.0040877707262666815 0.03270640631932621 -0.008400734054897184 0.02894584611792337 -10.698240693111098 0.019583290828567176 
